# xmcd CD database file
#
# Track frame offsets:
#	150
#	15492
#	28962
#	48547
#	64435
#	79110
#	101115
#	121782
#	135947
#	154585
#	168725
#	185470
#	200247
#
# Disc length: 2914 seconds
#
# Revision: 0
# Processed by: cddbd v1.5.1PL0 Copyright (c) Steve Scherf et al.
# Submitted via: CDex 1.51
#
DISCID=b40b600d
DTITLE=Main Country - live at alabama
DYEAR=1900
DGENRE=Country
TTITLE0=Hello Trouble
TTITLE1=Don't Rock The Jukebox
TTITLE2=Killing Time
TTITLE3=All My Exe's
TTITLE4=Amarillo By Morning
TTITLE5=Country Boy
TTITLE6=Cotton Eyed Joe
TTITLE7=Baby's Gotta Hold On Me
TTITLE8=Big City
TTITLE9=Ace Of Hearts
TTITLE10=Diggin' Up Bones
TTITLE11=Drinking My Baby Goodbye
TTITLE12=God Bless The USA
EXTD=
EXTT0=
EXTT1=
EXTT2=
EXTT3=
EXTT4=
EXTT5=
EXTT6=
EXTT7=
EXTT8=
EXTT9=
EXTT10=
EXTT11=
EXTT12=
PLAYORDER=
